<svg width="1920" height="1080" viewBox="0 0 1920 1080" fill="none" xmlns="http://www.w3.org/2000/svg">
<g clip-path="url(#clip0_450_2)">
<path d="M1918 748H2C0.89543 748 0 757.29 0 768.75V1059.25C0 1070.71 0.89543 1080 2 1080H1918C1919.1 1080 1920 1070.71 1920 1059.25V768.75C1920 757.29 1919.1 748 1918 748Z" fill="#C4B07A"/>
<path opacity="0.6" d="M1920 748H0V752H1920V748Z" fill="#A89060"/>
<path d="M1920 0H0V1080H1920V0Z" fill="url(#paint0_radial_450_2)"/>
<path d="M1440 780H480V1080H1440V780Z" fill="url(#paint1_radial_450_2)"/>
<path d="M960 0V185.891" stroke="#888888" stroke-width="3"/>
<path d="M972.842 0H947.158V11.938H972.842V0Z" fill="#C0B888"/>
<path d="M960 208.062C985.71 208.062 1006.55 203.481 1006.55 197.829C1006.55 192.178 985.71 187.597 960 187.597C934.29 187.597 913.447 192.178 913.447 197.829C913.447 203.481 934.29 208.062 960 208.062Z" fill="#E8E0C0" stroke="#B0A868" stroke-width="2"/>
<path opacity="0.88" d="M960 220C993.689 220 1021 213.891 1021 206.356C1021 198.821 993.689 192.713 960 192.713C926.311 192.713 899 198.821 899 206.356C899 213.891 926.311 220 960 220Z" fill="#F5F0D8"/>
<path d="M960 356C985.405 356 1006 335.405 1006 310C1006 284.595 985.405 264 960 264C934.595 264 914 284.595 914 310C914 335.405 934.595 356 960 356Z" fill="#F2EED8" stroke="#5A3010" stroke-width="3.5"/>
<path d="M960 350C982.091 350 1000 332.091 1000 310C1000 287.909 982.091 270 960 270C937.909 270 920 287.909 920 310C920 332.091 937.909 350 960 350Z" fill="#FAF8F0" stroke="#8A6028" stroke-width="1.5"/>
<path d="M960 272V280" stroke="#333333" stroke-width="2.5"/>
<path d="M960 339V347" stroke="#333333" stroke-width="2.5"/>
<path d="M920 310H928" stroke="#333333" stroke-width="2.5"/>
<path d="M991 310H999" stroke="#333333" stroke-width="2.5"/>
<path d="M960 310L945 292" stroke="#222222" stroke-width="3.5" stroke-linecap="round"/>
<path d="M960 310H978" stroke="#222222" stroke-width="2.5" stroke-linecap="round"/>
<path d="M960 314C962.209 314 964 312.209 964 310C964 307.791 962.209 306 960 306C957.791 306 956 307.791 956 310C956 312.209 957.791 314 960 314Z" fill="#333333"/>
<path d="M1155 404H981C977.686 404 975 405.18 975 406.636V568.334C975 569.79 977.686 570.97 981 570.97H1155C1158.31 570.97 1161 569.79 1161 568.334V406.636C1161 405.18 1158.31 404 1155 404Z" fill="#A8A490"/>
<path d="M1153 405.318H983C980.239 405.318 978 406.302 978 407.515V567.455C978 568.668 980.239 569.652 983 569.652H1153C1155.76 569.652 1158 568.668 1158 567.455V407.515C1158 406.302 1155.76 405.318 1153 405.318Z" stroke="#978F88" stroke-width="8"/>
<path d="M1147 408.394H989C987.343 408.394 986 408.984 986 409.712V565.258C986 565.986 987.343 566.576 989 566.576H1147C1148.66 566.576 1150 565.986 1150 565.258V409.712C1150 408.984 1148.66 408.394 1147 408.394Z" fill="url(#paint2_linear_450_2)"/>
<path opacity="0.55" d="M1136 480.454H1000C998.343 480.454 997 481.044 997 481.772V559.985C997 560.713 998.343 561.303 1000 561.303H1136C1137.66 561.303 1139 560.713 1139 559.985V481.772C1139 481.044 1137.66 480.454 1136 480.454Z" stroke="#AFA49C" stroke-width="2"/>
<path opacity="0.15" d="M1129 484H1007C1005.9 484 1005 484.393 1005 484.879V556.94C1005 557.425 1005.9 557.818 1007 557.818H1129C1130.1 557.818 1131 557.425 1131 556.94V484.879C1131 484.393 1130.1 484 1129 484Z" fill="#A07828"/>
<path d="M1050.65 518H1046.67C1045.98 516.945 1045.4 516.105 1044.95 515.48C1044.49 514.855 1043.92 514.133 1043.25 513.312H1042.84V516.469C1042.84 516.645 1042.88 516.794 1042.94 516.916C1043.01 517.038 1043.13 517.141 1043.32 517.224C1043.41 517.263 1043.56 517.304 1043.75 517.348C1043.95 517.387 1044.12 517.414 1044.26 517.429V518H1038.72V517.429C1038.86 517.414 1039.05 517.395 1039.28 517.37C1039.51 517.341 1039.68 517.307 1039.77 517.268C1039.96 517.189 1040.08 517.092 1040.15 516.975C1040.21 516.853 1040.24 516.699 1040.24 516.513V509.182C1040.24 509.006 1040.22 508.859 1040.16 508.742C1040.11 508.625 1039.98 508.522 1039.77 508.435C1039.62 508.371 1039.43 508.317 1039.22 508.273C1039.01 508.229 1038.84 508.198 1038.72 508.178V507.607H1044.55C1045.85 507.607 1046.84 507.812 1047.52 508.222C1048.19 508.627 1048.53 509.243 1048.53 510.068C1048.53 510.795 1048.32 511.381 1047.9 511.826C1047.49 512.265 1046.85 512.609 1046 512.858C1046.33 513.288 1046.72 513.786 1047.16 514.353C1047.6 514.919 1048.06 515.498 1048.54 516.088C1048.69 516.279 1048.9 516.513 1049.16 516.792C1049.42 517.065 1049.65 517.233 1049.85 517.297C1049.96 517.331 1050.11 517.36 1050.28 517.385C1050.45 517.409 1050.58 517.424 1050.65 517.429V518ZM1045.66 510.273C1045.66 509.58 1045.47 509.074 1045.08 508.757C1044.69 508.435 1044.14 508.273 1043.42 508.273H1042.84V512.624H1043.4C1044.12 512.624 1044.67 512.436 1045.07 512.06C1045.47 511.684 1045.66 511.088 1045.66 510.273ZM1062.66 508.178C1062.51 508.193 1062.31 508.227 1062.04 508.281C1061.78 508.33 1061.55 508.417 1061.37 508.544C1061.19 508.667 1061.06 508.886 1060.98 509.204C1060.9 509.521 1060.87 509.997 1060.87 510.632V514.499C1060.87 515.637 1060.48 516.552 1059.71 517.246C1058.94 517.939 1057.92 518.286 1056.65 518.286C1055.17 518.286 1054.02 517.951 1053.21 517.282C1052.4 516.613 1052 515.681 1052 514.484V509.167C1052 508.996 1051.96 508.85 1051.9 508.728C1051.83 508.605 1051.71 508.496 1051.52 508.398C1051.4 508.334 1051.24 508.283 1051.05 508.244C1050.87 508.205 1050.72 508.178 1050.6 508.164V507.607H1056.05V508.164C1055.89 508.173 1055.73 508.193 1055.57 508.222C1055.41 508.247 1055.25 508.286 1055.08 508.339C1054.9 508.398 1054.77 508.496 1054.71 508.632C1054.65 508.769 1054.61 508.923 1054.61 509.094V514.338C1054.61 515.368 1054.84 516.118 1055.29 516.586C1055.75 517.055 1056.41 517.29 1057.27 517.29C1058.12 517.29 1058.79 517.031 1059.27 516.513C1059.75 515.996 1060 515.234 1060 514.228V510.705C1060 510.08 1059.95 509.614 1059.86 509.306C1059.78 508.994 1059.65 508.769 1059.48 508.632C1059.35 508.525 1059.13 508.427 1058.81 508.339C1058.5 508.251 1058.28 508.198 1058.15 508.178V507.607H1062.66V508.178ZM1074.48 518H1068.81V517.429C1069.08 517.409 1069.39 517.363 1069.75 517.29C1070.1 517.211 1070.28 517.116 1070.28 517.004C1070.28 516.965 1070.27 516.921 1070.27 516.872C1070.26 516.823 1070.24 516.757 1070.21 516.674L1069.32 514.521H1065.73C1065.65 514.721 1065.56 514.956 1065.45 515.224C1065.36 515.493 1065.27 515.732 1065.2 515.942C1065.1 516.215 1065.05 516.413 1065.03 516.535C1065.01 516.657 1065.01 516.743 1065.01 516.792C1065.01 516.948 1065.12 517.082 1065.36 517.194C1065.6 517.302 1065.99 517.38 1066.54 517.429V518H1062.28V517.429C1062.44 517.419 1062.62 517.395 1062.82 517.355C1063.03 517.312 1063.19 517.253 1063.31 517.18C1063.51 517.062 1063.68 516.918 1063.81 516.748C1063.95 516.577 1064.07 516.374 1064.16 516.14C1064.73 514.768 1065.3 513.393 1065.86 512.016C1066.43 510.639 1067.06 509.121 1067.75 507.46H1069.22C1070.17 509.814 1070.92 511.674 1071.47 513.042C1072.01 514.409 1072.47 515.542 1072.85 516.44C1072.91 516.586 1072.99 516.721 1073.09 516.843C1073.19 516.96 1073.33 517.072 1073.51 517.18C1073.65 517.258 1073.81 517.316 1073.99 517.355C1074.17 517.395 1074.33 517.419 1074.48 517.429V518ZM1069.02 513.796L1067.51 510.031L1066.02 513.796H1069.02ZM1086.52 508.178C1086.38 508.193 1086.19 508.22 1085.93 508.259C1085.68 508.298 1085.45 508.393 1085.24 508.544C1085.06 508.676 1084.93 508.903 1084.85 509.226C1084.78 509.543 1084.75 510.012 1084.75 510.632V518.059H1083.44L1076.97 510.024V514.902C1076.97 515.507 1077.01 515.969 1077.08 516.286C1077.17 516.599 1077.3 516.828 1077.48 516.975C1077.61 517.082 1077.82 517.177 1078.11 517.26C1078.4 517.343 1078.63 517.399 1078.8 517.429V518H1074.33V517.429C1074.52 517.414 1074.74 517.38 1074.98 517.326C1075.23 517.268 1075.44 517.18 1075.6 517.062C1075.79 516.921 1075.92 516.708 1075.99 516.425C1076.07 516.137 1076.1 515.656 1076.1 514.982V510.061C1076.1 509.816 1076.06 509.587 1075.99 509.372C1075.91 509.152 1075.79 508.964 1075.63 508.808C1075.46 508.642 1075.27 508.513 1075.04 508.42C1074.82 508.322 1074.57 508.247 1074.29 508.193V507.607H1078.2L1083.88 514.638V510.705C1083.88 510.08 1083.84 509.616 1083.76 509.313C1083.67 509.006 1083.54 508.779 1083.36 508.632C1083.22 508.52 1083.01 508.425 1082.73 508.347C1082.45 508.264 1082.23 508.208 1082.06 508.178V507.607H1086.52V508.178ZM1098.75 513.774C1098.6 513.789 1098.46 513.806 1098.35 513.825C1098.23 513.845 1098.08 513.884 1097.91 513.942C1097.71 514.006 1097.57 514.111 1097.51 514.257C1097.45 514.404 1097.42 514.558 1097.42 514.719V515.927C1097.42 516.171 1097.42 516.369 1097.42 516.521C1097.43 516.667 1097.44 516.85 1097.45 517.07C1096.96 517.363 1096.23 517.639 1095.28 517.897C1094.33 518.156 1093.45 518.286 1092.65 518.286C1091.9 518.286 1091.19 518.171 1090.53 517.941C1089.87 517.712 1089.29 517.368 1088.8 516.909C1088.3 516.455 1087.9 515.891 1087.62 515.217C1087.33 514.543 1087.19 513.771 1087.19 512.902C1087.19 512.092 1087.33 511.342 1087.59 510.654C1087.86 509.965 1088.25 509.372 1088.76 508.874C1089.26 508.381 1089.86 508 1090.58 507.731C1091.29 507.463 1092.09 507.329 1092.96 507.329C1093.55 507.329 1094.09 507.402 1094.6 507.548C1095.1 507.69 1095.51 507.844 1095.84 508.01L1096.3 507.607H1096.93L1097 511.401H1096.35C1095.98 510.263 1095.54 509.418 1095.02 508.867C1094.5 508.315 1093.85 508.039 1093.06 508.039C1092.12 508.039 1091.4 508.449 1090.88 509.27C1090.38 510.09 1090.12 511.22 1090.12 512.661C1090.12 514.189 1090.37 515.385 1090.87 516.25C1091.37 517.114 1092.08 517.546 1093 517.546C1093.43 517.546 1093.81 517.482 1094.14 517.355C1094.48 517.224 1094.74 517.072 1094.93 516.901V514.792C1094.93 514.616 1094.89 514.47 1094.83 514.353C1094.77 514.23 1094.64 514.125 1094.45 514.038C1094.3 513.969 1094.12 513.913 1093.9 513.869C1093.68 513.825 1093.5 513.793 1093.35 513.774V513.203H1098.75V513.774ZM1053.53 535H1049.41C1048.79 534.048 1048.23 533.252 1047.74 532.612C1047.24 531.973 1046.6 531.169 1045.82 530.203H1045.44V533.469C1045.44 533.645 1045.48 533.794 1045.54 533.916C1045.6 534.038 1045.73 534.141 1045.92 534.224C1046.01 534.263 1046.14 534.302 1046.31 534.341C1046.48 534.38 1046.66 534.409 1046.83 534.429V535H1041.31V534.429C1041.44 534.419 1041.62 534.404 1041.86 534.385C1042.11 534.365 1042.28 534.336 1042.37 534.297C1042.55 534.229 1042.67 534.133 1042.74 534.011C1042.81 533.889 1042.84 533.735 1042.84 533.55V526.182C1042.84 526.011 1042.81 525.867 1042.76 525.75C1042.7 525.632 1042.57 525.527 1042.37 525.435C1042.22 525.366 1042.04 525.31 1041.83 525.266C1041.61 525.222 1041.44 525.193 1041.31 525.178V524.607H1047.01V525.178C1046.86 525.193 1046.68 525.215 1046.46 525.244C1046.25 525.269 1046.07 525.305 1045.92 525.354C1045.73 525.417 1045.6 525.518 1045.54 525.654C1045.48 525.791 1045.44 525.942 1045.44 526.108V529.609H1045.75C1046.13 529.263 1046.58 528.845 1047.08 528.357C1047.59 527.869 1047.98 527.468 1048.26 527.156C1048.65 526.721 1048.94 526.377 1049.12 526.123C1049.31 525.869 1049.4 525.649 1049.4 525.464C1049.4 525.381 1049.31 525.317 1049.13 525.273C1048.96 525.229 1048.69 525.198 1048.33 525.178V524.607H1052.85V525.178C1052.3 525.237 1051.84 525.337 1051.47 525.479C1051.1 525.615 1050.73 525.847 1050.37 526.174C1049.84 526.643 1049.41 527.051 1049.07 527.397C1048.73 527.739 1048.3 528.179 1047.77 528.716C1048.23 529.287 1048.8 529.988 1049.46 530.818C1050.12 531.643 1050.77 532.449 1051.43 533.235C1051.59 533.435 1051.78 533.628 1052 533.813C1052.21 533.994 1052.45 534.141 1052.71 534.253C1052.83 534.307 1052.97 534.348 1053.13 534.377C1053.28 534.407 1053.42 534.424 1053.53 534.429V535ZM1062.79 527.258H1062.24C1062.1 526.863 1061.85 526.462 1061.51 526.057C1061.16 525.652 1060.81 525.413 1060.47 525.339C1060.33 525.305 1060.12 525.286 1059.86 525.281C1059.6 525.271 1059.38 525.266 1059.21 525.266H1057.7V529.28H1058.77C1059.04 529.28 1059.29 529.248 1059.51 529.185C1059.73 529.121 1059.93 528.999 1060.11 528.818C1060.22 528.706 1060.33 528.508 1060.44 528.225C1060.56 527.942 1060.64 527.695 1060.67 527.485H1061.23V531.821H1060.67C1060.64 531.616 1060.57 531.36 1060.44 531.052C1060.33 530.74 1060.21 530.525 1060.11 530.408C1059.95 530.232 1059.75 530.112 1059.54 530.049C1059.32 529.98 1059.06 529.946 1058.77 529.946H1057.7V532.942C1057.7 533.254 1057.73 533.503 1057.77 533.689C1057.82 533.87 1057.91 534.009 1058.03 534.106C1058.16 534.199 1058.32 534.26 1058.53 534.29C1058.75 534.319 1059.04 534.333 1059.4 534.333C1059.57 534.333 1059.78 534.331 1060.02 534.326C1060.26 534.321 1060.47 534.307 1060.65 534.282C1060.85 534.258 1061.04 534.221 1061.22 534.172C1061.4 534.124 1061.53 534.053 1061.62 533.96C1061.86 533.721 1062.12 533.357 1062.41 532.869C1062.71 532.375 1062.9 532.007 1062.99 531.763H1063.53L1063.33 535H1053.58V534.429C1053.72 534.419 1053.9 534.399 1054.14 534.37C1054.37 534.341 1054.54 534.307 1054.64 534.268C1054.82 534.189 1054.95 534.092 1055.01 533.975C1055.07 533.853 1055.1 533.699 1055.1 533.513V526.182C1055.1 526.006 1055.08 525.862 1055.02 525.75C1054.97 525.632 1054.84 525.527 1054.64 525.435C1054.51 525.376 1054.33 525.322 1054.1 525.273C1053.87 525.225 1053.7 525.193 1053.58 525.178V524.607H1062.79V527.258ZM1076.34 535H1072.35C1071.66 533.945 1071.09 533.105 1070.63 532.48C1070.18 531.855 1069.61 531.133 1068.93 530.312H1068.53V533.469C1068.53 533.645 1068.56 533.794 1068.62 533.916C1068.69 534.038 1068.82 534.141 1069.01 534.224C1069.1 534.263 1069.24 534.304 1069.44 534.348C1069.64 534.387 1069.81 534.414 1069.95 534.429V535H1064.41V534.429C1064.55 534.414 1064.73 534.395 1064.96 534.37C1065.2 534.341 1065.36 534.307 1065.46 534.268C1065.65 534.189 1065.77 534.092 1065.83 533.975C1065.9 533.853 1065.93 533.699 1065.93 533.513V526.182C1065.93 526.006 1065.9 525.859 1065.85 525.742C1065.79 525.625 1065.67 525.522 1065.46 525.435C1065.3 525.371 1065.12 525.317 1064.9 525.273C1064.69 525.229 1064.53 525.198 1064.41 525.178V524.607H1070.24C1071.54 524.607 1072.53 524.812 1073.2 525.222C1073.88 525.627 1074.22 526.243 1074.22 527.068C1074.22 527.795 1074.01 528.381 1073.59 528.826C1073.18 529.265 1072.54 529.609 1071.69 529.858C1072.02 530.288 1072.4 530.786 1072.84 531.353C1073.29 531.919 1073.75 532.498 1074.23 533.088C1074.38 533.279 1074.58 533.513 1074.84 533.792C1075.11 534.065 1075.34 534.233 1075.54 534.297C1075.65 534.331 1075.79 534.36 1075.96 534.385C1076.14 534.409 1076.26 534.424 1076.34 534.429V535ZM1071.35 527.273C1071.35 526.58 1071.15 526.074 1070.76 525.757C1070.38 525.435 1069.83 525.273 1069.11 525.273H1068.53V529.624H1069.09C1069.8 529.624 1070.36 529.436 1070.76 529.06C1071.15 528.684 1071.35 528.088 1071.35 527.273ZM1084.41 525.178C1084.21 525.203 1084.05 525.227 1083.91 525.251C1083.77 525.276 1083.62 525.31 1083.45 525.354C1083.25 525.408 1083.12 525.503 1083.06 525.64C1083.01 525.776 1082.98 525.933 1082.98 526.108V531.836C1082.98 532.363 1082.87 532.847 1082.66 533.286C1082.45 533.726 1082.16 534.094 1081.79 534.392C1081.41 534.685 1080.99 534.905 1080.53 535.051C1080.06 535.203 1079.57 535.278 1079.04 535.278C1078.13 535.278 1077.39 535.059 1076.83 534.619C1076.27 534.18 1075.99 533.577 1075.99 532.81C1075.99 532.356 1076.12 531.98 1076.37 531.682C1076.63 531.384 1076.99 531.235 1077.44 531.235C1077.86 531.235 1078.2 531.36 1078.45 531.609C1078.7 531.858 1078.83 532.166 1078.83 532.532C1078.83 532.844 1078.72 533.135 1078.5 533.403C1078.28 533.667 1078.04 533.911 1077.76 534.136V534.231C1077.8 534.329 1077.9 534.412 1078.04 534.48C1078.19 534.548 1078.34 534.583 1078.49 534.583C1079.08 534.583 1079.54 534.373 1079.87 533.953C1080.2 533.533 1080.37 532.898 1080.37 532.048V526.182C1080.37 526.006 1080.35 525.859 1080.29 525.742C1080.24 525.625 1080.11 525.522 1079.9 525.435C1079.76 525.371 1079.58 525.317 1079.37 525.273C1079.16 525.229 1078.99 525.198 1078.86 525.178V524.607H1084.41V525.178ZM1096.59 535H1090.93V534.429C1091.19 534.409 1091.5 534.363 1091.86 534.29C1092.21 534.211 1092.39 534.116 1092.39 534.004C1092.39 533.965 1092.39 533.921 1092.38 533.872C1092.37 533.823 1092.35 533.757 1092.32 533.674L1091.43 531.521H1087.84C1087.76 531.721 1087.67 531.956 1087.56 532.224C1087.47 532.493 1087.38 532.732 1087.31 532.942C1087.22 533.215 1087.16 533.413 1087.14 533.535C1087.13 533.657 1087.12 533.743 1087.12 533.792C1087.12 533.948 1087.24 534.082 1087.47 534.194C1087.71 534.302 1088.1 534.38 1088.66 534.429V535H1084.39V534.429C1084.55 534.419 1084.74 534.395 1084.94 534.355C1085.14 534.312 1085.3 534.253 1085.42 534.18C1085.62 534.062 1085.79 533.918 1085.92 533.748C1086.07 533.577 1086.18 533.374 1086.28 533.14C1086.84 531.768 1087.41 530.393 1087.98 529.016C1088.55 527.639 1089.18 526.121 1089.86 524.46H1091.33C1092.29 526.814 1093.04 528.674 1093.58 530.042C1094.12 531.409 1094.58 532.542 1094.96 533.44C1095.03 533.586 1095.11 533.721 1095.2 533.843C1095.3 533.96 1095.44 534.072 1095.62 534.18C1095.76 534.258 1095.92 534.316 1096.1 534.355C1096.28 534.395 1096.44 534.419 1096.59 534.429V535ZM1091.13 530.796L1089.62 527.031L1088.14 530.796H1091.13Z" fill="black"/>
<path d="M939 404H765C761.686 404 759 405.18 759 406.636V568.334C759 569.79 761.686 570.97 765 570.97H939C942.314 570.97 945 569.79 945 568.334V406.636C945 405.18 942.314 404 939 404Z" fill="#A8A490"/>
<path d="M937 405.318H767C764.239 405.318 762 406.302 762 407.515V567.455C762 568.668 764.239 569.652 767 569.652H937C939.761 569.652 942 568.668 942 567.455V407.515C942 406.302 939.761 405.318 937 405.318Z" stroke="#978F88" stroke-width="8"/>
<path d="M931 408.394H773C771.343 408.394 770 408.984 770 409.712V565.258C770 565.986 771.343 566.576 773 566.576H931C932.657 566.576 934 565.986 934 565.258V409.712C934 408.984 932.657 408.394 931 408.394Z" fill="url(#paint3_linear_450_2)"/>
<path opacity="0.55" d="M920 480.454H784C782.343 480.454 781 481.044 781 481.772V559.985C781 560.713 782.343 561.303 784 561.303H920C921.657 561.303 923 560.713 923 559.985V481.772C923 481.044 921.657 480.454 920 480.454Z" stroke="#AFA49C" stroke-width="2"/>
<path opacity="0.15" d="M913 484H791C789.895 484 789 484.393 789 484.879V556.94C789 557.425 789.895 557.818 791 557.818H913C914.105 557.818 915 557.425 915 556.94V484.879C915 484.393 914.105 484 913 484Z" fill="#A07828"/>
<path d="M834.043 518H829.927C829.307 517.048 828.748 516.252 828.25 515.612C827.751 514.973 827.114 514.169 826.338 513.203H825.957V516.469C825.957 516.645 825.989 516.794 826.052 516.916C826.116 517.038 826.243 517.141 826.433 517.224C826.521 517.263 826.65 517.302 826.821 517.341C826.997 517.38 827.17 517.409 827.341 517.429V518H821.819V517.429C821.951 517.419 822.136 517.404 822.375 517.385C822.62 517.365 822.791 517.336 822.888 517.297C823.064 517.229 823.186 517.133 823.254 517.011C823.323 516.889 823.357 516.735 823.357 516.55V509.182C823.357 509.011 823.328 508.867 823.269 508.75C823.21 508.632 823.083 508.527 822.888 508.435C822.737 508.366 822.554 508.31 822.339 508.266C822.124 508.222 821.951 508.193 821.819 508.178V507.607H827.524V508.178C827.373 508.193 827.19 508.215 826.975 508.244C826.765 508.269 826.584 508.305 826.433 508.354C826.243 508.417 826.116 508.518 826.052 508.654C825.989 508.791 825.957 508.942 825.957 509.108V512.609H826.265C826.646 512.263 827.09 511.845 827.598 511.357C828.105 510.869 828.499 510.468 828.777 510.156C829.167 509.721 829.453 509.377 829.634 509.123C829.819 508.869 829.912 508.649 829.912 508.464C829.912 508.381 829.824 508.317 829.648 508.273C829.473 508.229 829.204 508.198 828.843 508.178V507.607H833.362V508.178C832.815 508.237 832.356 508.337 831.985 508.479C831.614 508.615 831.245 508.847 830.879 509.174C830.356 509.643 829.924 510.051 829.583 510.397C829.246 510.739 828.811 511.179 828.279 511.716C828.748 512.287 829.312 512.988 829.971 513.818C830.63 514.643 831.287 515.449 831.941 516.235C832.107 516.435 832.297 516.628 832.512 516.813C832.727 516.994 832.964 517.141 833.223 517.253C833.345 517.307 833.484 517.348 833.64 517.377C833.796 517.407 833.931 517.424 834.043 517.429V518ZM845.374 518H839.712V517.429C839.976 517.409 840.286 517.363 840.642 517.29C840.999 517.211 841.177 517.116 841.177 517.004C841.177 516.965 841.172 516.921 841.162 516.872C841.157 516.823 841.138 516.757 841.104 516.674L840.217 514.521H836.628C836.545 514.721 836.453 514.956 836.35 515.224C836.252 515.493 836.167 515.732 836.094 515.942C836.001 516.215 835.945 516.413 835.925 516.535C835.911 516.657 835.903 516.743 835.903 516.792C835.903 516.948 836.021 517.082 836.255 517.194C836.494 517.302 836.89 517.38 837.441 517.429V518H833.179V517.429C833.34 517.419 833.521 517.395 833.721 517.355C833.926 517.312 834.087 517.253 834.204 517.18C834.404 517.062 834.573 516.918 834.709 516.748C834.851 516.577 834.968 516.374 835.061 516.14C835.627 514.768 836.194 513.393 836.76 512.016C837.332 510.639 837.961 509.121 838.65 507.46H840.115C841.072 509.814 841.821 511.674 842.363 513.042C842.905 514.409 843.367 515.542 843.748 516.44C843.811 516.586 843.892 516.721 843.989 516.843C844.087 516.96 844.226 517.072 844.407 517.18C844.543 517.258 844.702 517.316 844.883 517.355C845.063 517.395 845.227 517.419 845.374 517.429V518ZM839.917 513.796L838.408 510.031L836.921 513.796H839.917ZM859.758 518H854.126V517.429C854.292 517.414 854.495 517.39 854.734 517.355C854.978 517.321 855.144 517.285 855.232 517.246C855.413 517.172 855.542 517.072 855.62 516.945C855.698 516.818 855.737 516.657 855.737 516.462V508.698L852.163 517.832H851.24C851.196 517.67 851.086 517.351 850.911 516.872C850.74 516.394 850.601 516.01 850.493 515.722L847.864 508.581V514.902C847.864 515.507 847.903 515.969 847.981 516.286C848.064 516.599 848.196 516.828 848.376 516.975C848.499 517.077 848.716 517.175 849.028 517.268C849.346 517.36 849.568 517.414 849.695 517.429V518H845.227V517.429C845.349 517.414 845.547 517.382 845.82 517.333C846.099 517.28 846.326 517.189 846.501 517.062C846.697 516.926 846.829 516.696 846.897 516.374C846.965 516.047 847 515.583 847 514.982V509.833C847 509.521 846.96 509.262 846.882 509.057C846.804 508.847 846.687 508.681 846.531 508.559C846.335 508.408 846.135 508.31 845.93 508.266C845.725 508.222 845.518 508.193 845.308 508.178V507.607H850.09L852.654 514.47L854.814 508.896C854.888 508.691 854.958 508.447 855.027 508.164C855.095 507.88 855.132 507.695 855.137 507.607H859.744V508.178C859.587 508.188 859.424 508.208 859.253 508.237C859.082 508.266 858.918 508.305 858.762 508.354C858.572 508.417 858.445 508.518 858.381 508.654C858.323 508.791 858.293 508.942 858.293 509.108V516.469C858.293 516.645 858.323 516.794 858.381 516.916C858.445 517.033 858.572 517.136 858.762 517.224C858.86 517.268 859.019 517.309 859.238 517.348C859.463 517.387 859.636 517.414 859.758 517.429V518ZM872.107 518H866.445V517.429C866.709 517.409 867.019 517.363 867.375 517.29C867.732 517.211 867.91 517.116 867.91 517.004C867.91 516.965 867.905 516.921 867.896 516.872C867.891 516.823 867.871 516.757 867.837 516.674L866.951 514.521H863.362C863.279 514.721 863.186 514.956 863.083 515.224C862.986 515.493 862.9 515.732 862.827 515.942C862.734 516.215 862.678 516.413 862.659 516.535C862.644 516.657 862.637 516.743 862.637 516.792C862.637 516.948 862.754 517.082 862.988 517.194C863.228 517.302 863.623 517.38 864.175 517.429V518H859.912V517.429C860.073 517.419 860.254 517.395 860.454 517.355C860.659 517.312 860.82 517.253 860.938 517.18C861.138 517.062 861.306 516.918 861.443 516.748C861.584 516.577 861.702 516.374 861.794 516.14C862.361 514.768 862.927 513.393 863.494 512.016C864.065 510.639 864.695 509.121 865.383 507.46H866.848C867.805 509.814 868.555 511.674 869.097 513.042C869.639 514.409 870.1 515.542 870.481 516.44C870.544 516.586 870.625 516.721 870.723 516.843C870.82 516.96 870.959 517.072 871.14 517.18C871.277 517.258 871.436 517.316 871.616 517.355C871.797 517.395 871.96 517.419 872.107 517.429V518ZM866.65 513.796L865.142 510.031L863.655 513.796H866.65ZM884.141 518H880.156C879.468 516.945 878.894 516.105 878.435 515.48C877.981 514.855 877.415 514.133 876.736 513.312H876.333V516.469C876.333 516.645 876.365 516.794 876.428 516.916C876.497 517.038 876.624 517.141 876.809 517.224C876.902 517.263 877.046 517.304 877.241 517.348C877.441 517.387 877.612 517.414 877.754 517.429V518H872.209V517.429C872.351 517.414 872.537 517.395 872.766 517.37C873 517.341 873.167 517.307 873.264 517.268C873.45 517.189 873.574 517.092 873.638 516.975C873.701 516.853 873.733 516.699 873.733 516.513V509.182C873.733 509.006 873.706 508.859 873.652 508.742C873.599 508.625 873.469 508.522 873.264 508.435C873.108 508.371 872.922 508.317 872.708 508.273C872.498 508.229 872.332 508.198 872.209 508.178V507.607H878.04C879.343 507.607 880.332 507.812 881.006 508.222C881.685 508.627 882.024 509.243 882.024 510.068C882.024 510.795 881.814 511.381 881.394 511.826C880.979 512.265 880.344 512.609 879.49 512.858C879.822 513.288 880.208 513.786 880.647 514.353C881.091 514.919 881.553 515.498 882.031 516.088C882.183 516.279 882.388 516.513 882.646 516.792C882.91 517.065 883.142 517.233 883.342 517.297C883.455 517.331 883.596 517.36 883.767 517.385C883.943 517.409 884.067 517.424 884.141 517.429V518ZM879.153 510.273C879.153 509.58 878.958 509.074 878.567 508.757C878.181 508.435 877.629 508.273 876.912 508.273H876.333V512.624H876.89C877.607 512.624 878.164 512.436 878.56 512.06C878.955 511.684 879.153 511.088 879.153 510.273ZM835.691 527.581H835.127C834.976 527.136 834.731 526.66 834.395 526.152C834.062 525.645 833.755 525.371 833.472 525.332C833.315 525.312 833.123 525.295 832.893 525.281C832.664 525.266 832.466 525.259 832.3 525.259H831.956V533.411C831.956 533.586 831.987 533.743 832.051 533.879C832.114 534.011 832.239 534.116 832.424 534.194C832.537 534.238 832.71 534.285 832.944 534.333C833.184 534.377 833.386 534.409 833.552 534.429V535H827.759V534.429C827.9 534.414 828.098 534.395 828.352 534.37C828.611 534.341 828.787 534.307 828.879 534.268C829.07 534.189 829.197 534.084 829.26 533.953C829.324 533.821 829.355 533.665 829.355 533.484V525.259H829.011C828.845 525.259 828.647 525.266 828.418 525.281C828.188 525.295 827.996 525.312 827.839 525.332C827.556 525.371 827.246 525.645 826.909 526.152C826.577 526.66 826.335 527.136 826.184 527.581H825.62V524.607H835.691V527.581ZM842.019 535H836.255V534.429C836.387 534.419 836.58 534.404 836.833 534.385C837.092 534.365 837.271 534.336 837.368 534.297C837.549 534.224 837.671 534.128 837.734 534.011C837.803 533.889 837.837 533.735 837.837 533.55V526.182C837.837 526.016 837.805 525.869 837.742 525.742C837.678 525.615 837.554 525.513 837.368 525.435C837.251 525.386 837.078 525.337 836.848 525.288C836.619 525.234 836.421 525.198 836.255 525.178V524.607H842.019V525.178C841.873 525.193 841.689 525.215 841.47 525.244C841.25 525.269 841.064 525.305 840.913 525.354C840.723 525.417 840.596 525.518 840.532 525.654C840.469 525.786 840.437 525.938 840.437 526.108V533.469C840.437 533.645 840.469 533.796 840.532 533.923C840.601 534.045 840.728 534.146 840.913 534.224C841.016 534.268 841.184 534.312 841.418 534.355C841.658 534.395 841.858 534.419 842.019 534.429V535ZM852.354 525.676C852.988 526.091 853.501 526.646 853.892 527.339C854.282 528.027 854.478 528.872 854.478 529.873C854.478 530.752 854.302 531.519 853.95 532.173C853.604 532.822 853.142 533.354 852.566 533.77C851.98 534.185 851.313 534.495 850.566 534.7C849.824 534.9 849.045 535 848.23 535H842.993V534.429C843.149 534.424 843.345 534.409 843.579 534.385C843.813 534.36 843.97 534.331 844.048 534.297C844.224 534.224 844.346 534.126 844.414 534.004C844.482 533.877 844.517 533.726 844.517 533.55V526.182C844.517 526.016 844.485 525.867 844.421 525.735C844.358 525.598 844.233 525.488 844.048 525.405C843.862 525.322 843.665 525.266 843.455 525.237C843.25 525.208 843.091 525.188 842.979 525.178V524.607H848.508C849.099 524.607 849.731 524.683 850.405 524.834C851.079 524.985 851.729 525.266 852.354 525.676ZM850.859 533.125C851.099 532.734 851.272 532.271 851.379 531.733C851.492 531.191 851.548 530.569 851.548 529.866C851.548 529.177 851.475 528.55 851.328 527.983C851.182 527.417 850.967 526.934 850.684 526.533C850.4 526.133 850.046 525.823 849.622 525.603C849.202 525.383 848.723 525.273 848.186 525.273C848.015 525.273 847.82 525.278 847.6 525.288C847.385 525.293 847.224 525.298 847.117 525.303V533.191C847.117 533.367 847.139 533.523 847.183 533.66C847.231 533.792 847.312 533.909 847.424 534.011C847.537 534.114 847.673 534.194 847.834 534.253C848 534.307 848.215 534.333 848.479 534.333C849.031 534.333 849.504 534.231 849.9 534.026C850.295 533.821 850.615 533.521 850.859 533.125ZM867.471 525.178C867.329 525.193 867.124 525.227 866.855 525.281C866.592 525.33 866.37 525.417 866.189 525.544C866.003 525.667 865.872 525.886 865.793 526.204C865.72 526.521 865.684 526.997 865.684 527.632V531.499C865.684 532.637 865.298 533.552 864.526 534.246C863.755 534.939 862.734 535.286 861.465 535.286C859.985 535.286 858.84 534.951 858.03 534.282C857.219 533.613 856.814 532.681 856.814 531.484V526.167C856.814 525.996 856.78 525.85 856.711 525.728C856.648 525.605 856.523 525.496 856.338 525.398C856.211 525.334 856.055 525.283 855.869 525.244C855.684 525.205 855.532 525.178 855.415 525.164V524.607H860.864V525.164C860.708 525.173 860.549 525.193 860.388 525.222C860.227 525.247 860.063 525.286 859.897 525.339C859.712 525.398 859.587 525.496 859.524 525.632C859.46 525.769 859.429 525.923 859.429 526.094V531.338C859.429 532.368 859.656 533.118 860.11 533.586C860.564 534.055 861.223 534.29 862.087 534.29C862.937 534.29 863.604 534.031 864.087 533.513C864.57 532.996 864.812 532.234 864.812 531.228V527.705C864.812 527.08 864.768 526.614 864.68 526.306C864.597 525.994 864.468 525.769 864.292 525.632C864.165 525.525 863.943 525.427 863.625 525.339C863.313 525.251 863.093 525.198 862.966 525.178V524.607H867.471V525.178ZM879.944 535H875.959C875.271 533.945 874.697 533.105 874.238 532.48C873.784 531.855 873.218 531.133 872.539 530.312H872.136V533.469C872.136 533.645 872.168 533.794 872.231 533.916C872.3 534.038 872.427 534.141 872.612 534.224C872.705 534.263 872.849 534.304 873.044 534.348C873.245 534.387 873.416 534.414 873.557 534.429V535H868.013V534.429C868.154 534.414 868.34 534.395 868.569 534.37C868.804 534.341 868.97 534.307 869.067 534.268C869.253 534.189 869.377 534.092 869.441 533.975C869.504 533.853 869.536 533.699 869.536 533.513V526.182C869.536 526.006 869.509 525.859 869.456 525.742C869.402 525.625 869.272 525.522 869.067 525.435C868.911 525.371 868.726 525.317 868.511 525.273C868.301 525.229 868.135 525.198 868.013 525.178V524.607H873.843C875.146 524.607 876.135 524.812 876.809 525.222C877.488 525.627 877.827 526.243 877.827 527.068C877.827 527.795 877.617 528.381 877.197 528.826C876.782 529.265 876.147 529.609 875.293 529.858C875.625 530.288 876.011 530.786 876.45 531.353C876.895 531.919 877.356 532.498 877.834 533.088C877.986 533.279 878.191 533.513 878.45 533.792C878.713 534.065 878.945 534.233 879.146 534.297C879.258 534.331 879.399 534.36 879.57 534.385C879.746 534.409 879.871 534.424 879.944 534.429V535ZM874.956 527.273C874.956 526.58 874.761 526.074 874.37 525.757C873.984 525.435 873.433 525.273 872.715 525.273H872.136V529.624H872.693C873.411 529.624 873.967 529.436 874.363 529.06C874.758 528.684 874.956 528.088 874.956 527.273Z" fill="black"/>
<path d="M508 265H442C440.343 265 439 266.343 439 268V350C439 351.657 440.343 353 442 353H508C509.657 353 511 351.657 511 350V268C511 266.343 509.657 265 508 265Z" fill="#F0F0E8" stroke="#9A8058" stroke-width="2"/>
<path d="M508 265H442C440.895 265 440 265.895 440 267V285C440 286.105 440.895 287 442 287H508C509.105 287 510 286.105 510 285V267C510 265.895 509.105 265 508 265Z" fill="#B03020"/>
<path d="M465.257 271.545H466.624L469.837 279.393H469.948L473.161 271.545H474.527V281H473.456V273.817H473.364L470.409 281H469.375L466.421 273.817H466.328V281H465.257V271.545ZM476.823 281V271.545H482.529V272.561H477.968V275.756H482.233V276.771H477.968V279.984H482.602V281H476.823ZM485.737 271.545V281H484.592V271.545H485.737Z" fill="white"/>
<path d="M469.005 304.182V326H464.392V308.56H464.264L459.268 311.692V307.602L464.669 304.182H469.005ZM482.33 326.298C480.689 326.298 479.229 326.032 477.951 325.499C476.68 324.96 475.682 324.224 474.957 323.294C474.233 322.364 473.871 321.309 473.871 320.13C473.871 319.221 474.077 318.386 474.489 317.626C474.908 316.859 475.476 316.224 476.193 315.719C476.911 315.208 477.713 314.881 478.601 314.739V314.59C477.436 314.356 476.491 313.791 475.767 312.896C475.043 311.994 474.68 310.947 474.68 309.754C474.68 308.624 475.011 307.619 475.671 306.739C476.332 305.851 477.237 305.155 478.388 304.651C479.545 304.139 480.859 303.884 482.33 303.884C483.8 303.884 485.11 304.139 486.261 304.651C487.418 305.162 488.327 305.862 488.988 306.749C489.648 307.63 489.982 308.631 489.989 309.754C489.982 310.954 489.613 312.001 488.881 312.896C488.15 313.791 487.212 314.356 486.069 314.59V314.739C486.942 314.881 487.734 315.208 488.445 315.719C489.162 316.224 489.73 316.859 490.149 317.626C490.575 318.386 490.792 319.221 490.799 320.13C490.792 321.309 490.426 322.364 489.702 323.294C488.977 324.224 487.976 324.96 486.697 325.499C485.426 326.032 483.97 326.298 482.33 326.298ZM482.33 322.911C483.061 322.911 483.7 322.779 484.247 322.516C484.794 322.246 485.22 321.877 485.526 321.408C485.838 320.933 485.994 320.386 485.994 319.768C485.994 319.136 485.835 318.578 485.515 318.095C485.195 317.605 484.762 317.222 484.215 316.945C483.668 316.661 483.04 316.518 482.33 316.518C481.626 316.518 480.998 316.661 480.444 316.945C479.89 317.222 479.453 317.605 479.134 318.095C478.821 318.578 478.665 319.136 478.665 319.768C478.665 320.386 478.817 320.933 479.123 321.408C479.428 321.877 479.858 322.246 480.412 322.516C480.966 322.779 481.605 322.911 482.33 322.911ZM482.33 313.163C482.94 313.163 483.484 313.038 483.96 312.79C484.435 312.541 484.808 312.197 485.078 311.756C485.348 311.316 485.483 310.808 485.483 310.233C485.483 309.665 485.348 309.168 485.078 308.741C484.808 308.308 484.439 307.971 483.97 307.729C483.501 307.481 482.955 307.357 482.33 307.357C481.712 307.357 481.165 307.481 480.689 307.729C480.213 307.971 479.84 308.308 479.57 308.741C479.308 309.168 479.176 309.665 479.176 310.233C479.176 310.808 479.311 311.316 479.581 311.756C479.851 312.197 480.224 312.541 480.7 312.79C481.175 313.038 481.719 313.163 482.33 313.163Z" fill="#333333"/>
<path d="M391 240H221C218.239 240 216 242.239 216 245V365C216 367.761 218.239 370 221 370H391C393.761 370 396 367.761 396 365V245C396 242.239 393.761 240 391 240Z" fill="#654321" stroke="#3D2817" stroke-width="5"/>
<path d="M378 255H234C232.343 255 231 256.343 231 258V352C231 353.657 232.343 355 234 355H378C379.657 355 381 353.657 381 352V258C381 256.343 379.657 255 378 255Z" fill="#87CEEB" stroke="#5C4033" stroke-width="2"/>
<path d="M378 258H234V308H378V258Z" fill="#87CEEB"/>
<path d="M264 296C275.046 296 284 287.941 284 278C284 268.059 275.046 260 264 260C252.954 260 244 268.059 244 278C244 287.941 252.954 296 264 296Z" fill="#FFD700"/>
<path d="M262 291C271.389 291 279 284.284 279 276C279 267.716 271.389 261 262 261C252.611 261 245 267.716 245 276C245 284.284 252.611 291 262 291Z" fill="#FFEB3B"/>
<path opacity="0.8" d="M321 279C328.732 279 335 274.971 335 270C335 265.029 328.732 261 321 261C313.268 261 307 265.029 307 270C307 274.971 313.268 279 321 279Z" fill="white"/>
<path opacity="0.8" d="M334 281C340.627 281 346 277.418 346 273C346 268.582 340.627 265 334 265C327.373 265 322 268.582 322 273C322 277.418 327.373 281 334 281Z" fill="white"/>
<path d="M234 308L252 285L270 300L288 280L310 295L332 285L354 300L378 308H234Z" fill="#228B22" stroke="#1B5E1B"/>
<path d="M234 320L258 302L282 312L304 300L328 310L348 304L378 320H234Z" fill="#32CD32" stroke="#228B22"/>
<path d="M378 320H234V350H378V320Z" fill="#90EE90"/>
<path d="M303 323H294V345H303V323Z" fill="#654321"/>
<path d="M298 335C304.627 335 310 329.627 310 323C310 316.373 304.627 311 298 311C291.373 311 286 316.373 286 323C286 329.627 291.373 335 298 335Z" fill="#228B22" stroke="#1B5E1B"/>
<path d="M306 331C312.075 331 317 326.075 317 320C317 313.925 312.075 309 306 309C299.925 309 295 313.925 295 320C295 326.075 299.925 331 306 331Z" fill="#32CD32" stroke="#228B22"/>
<path d="M291 328C296.523 328 301 323.523 301 318C301 312.477 296.523 308 291 308C285.477 308 281 312.477 281 318C281 323.523 285.477 328 291 328Z" fill="#2E7D32" stroke="#1B5E1B"/>
<path opacity="0.6" d="M221 245H391" stroke="#8B5A3C" stroke-width="2"/>
<path opacity="0.6" d="M221 245V365" stroke="#8B5A3C" stroke-width="2"/>
<path d="M1631.68 373.096H1475.32C1473.42 373.096 1471.89 374.634 1471.89 376.532V773.432C1471.89 775.33 1473.42 776.868 1475.32 776.868H1631.68C1633.58 776.868 1635.11 775.33 1635.11 773.432V376.532C1635.11 374.634 1633.58 373.096 1631.68 373.096Z" fill="#8B7355" stroke="#5C4033" stroke-width="4"/>
<path d="M1622.23 383.404H1484.77C1483.35 383.404 1482.2 384.558 1482.2 385.982V707.282C1482.2 708.705 1483.35 709.859 1484.77 709.859H1622.23C1623.65 709.859 1624.8 708.705 1624.8 707.282V385.982C1624.8 384.558 1623.65 383.404 1622.23 383.404Z" fill="#6B5845" stroke="#4A3B2A" stroke-width="3"/>
<path d="M1610.2 433.231H1496.8C1494.43 433.231 1492.5 435.155 1492.5 437.527V695.254C1492.5 697.626 1494.43 699.55 1496.8 699.55H1610.2C1612.57 699.55 1614.5 697.626 1614.5 695.254V437.527C1614.5 435.155 1612.57 433.231 1610.2 433.231Z" fill="#1A1008" stroke="#2A2010" stroke-width="2"/>
<path d="M1606.76 438.387H1500.24C1498.81 438.387 1497.66 439.541 1497.66 440.964V691.819C1497.66 693.242 1498.81 694.396 1500.24 694.396H1606.76C1608.19 694.396 1609.34 693.242 1609.34 691.819V440.964C1609.34 439.541 1608.19 438.387 1606.76 438.387Z" fill="#2A1A0A"/>
<g opacity="0.5">
<path d="M1477.04 407.459H1631.68" stroke="#7A6850"/>
<path d="M1477.04 450.414H1492.5" stroke="#7A6850"/>
<path d="M1614.5 450.414H1631.68" stroke="#7A6850"/>
<path d="M1477.04 493.368H1492.5" stroke="#7A6850"/>
<path d="M1614.5 493.368H1631.68" stroke="#7A6850"/>
<path d="M1477.04 536.322H1492.5" stroke="#7A6850"/>
<path d="M1614.5 536.322H1631.68" stroke="#7A6850"/>
<path d="M1477.04 579.277H1492.5" stroke="#7A6850"/>
<path d="M1614.5 579.277H1631.68" stroke="#7A6850"/>
<path d="M1477.04 622.231H1492.5" stroke="#7A6850"/>
<path d="M1614.5 622.231H1631.68" stroke="#7A6850"/>
<path d="M1477.04 665.187H1492.5" stroke="#7A6850"/>
<path d="M1614.5 665.187H1631.68" stroke="#7A6850"/>
<path d="M1477.04 708.141H1631.68" stroke="#7A6850"/>
<path d="M1553.5 383.404V407.459" stroke="#7A6850"/>
<path d="M1532.02 708.141V776.868" stroke="#7A6850"/>
<path d="M1574.98 708.141V776.868" stroke="#7A6850"/>
</g>
<path d="M1644.56 360.209H1462.44C1460.54 360.209 1459 361.747 1459 363.645V375.673C1459 377.57 1460.54 379.109 1462.44 379.109H1644.56C1646.46 379.109 1648 377.57 1648 375.673V363.645C1648 361.747 1646.46 360.209 1644.56 360.209Z" fill="#654321" stroke="#3D2817" stroke-width="3"/>
<path d="M1641.99 363.646H1465.01C1464.06 363.646 1463.3 364.415 1463.3 365.364V373.955C1463.3 374.904 1464.06 375.673 1465.01 375.673H1641.99C1642.94 375.673 1643.7 374.904 1643.7 373.955V365.364C1643.7 364.415 1642.94 363.646 1641.99 363.646Z" fill="#8B6F47"/>
<path d="M1553.5 364.505C1560.14 364.505 1565.53 359.12 1565.53 352.477C1565.53 345.835 1560.14 340.45 1553.5 340.45C1546.86 340.45 1541.47 345.835 1541.47 352.477C1541.47 359.12 1546.86 364.505 1553.5 364.505Z" fill="#F5F5DC" stroke="#654321" stroke-width="2"/>
<path d="M1553.5 361.927C1558.72 361.927 1562.95 357.696 1562.95 352.477C1562.95 347.258 1558.72 343.027 1553.5 343.027C1548.28 343.027 1544.05 347.258 1544.05 352.477C1544.05 357.696 1548.28 361.927 1553.5 361.927Z" fill="#FFFFF0"/>
<path d="M1553.5 352.477V345.604" stroke="#333333" stroke-width="1.5"/>
<path d="M1553.5 352.478H1558.65" stroke="#333333"/>
<path d="M1507.11 347.322H1498.52C1498.04 347.322 1497.66 347.707 1497.66 348.181V361.927C1497.66 362.401 1498.04 362.786 1498.52 362.786H1507.11C1507.58 362.786 1507.97 362.401 1507.97 361.927V348.181C1507.97 347.707 1507.58 347.322 1507.11 347.322Z" fill="#DAA520"/>
<path d="M1504.53 339.591H1501.1C1500.62 339.591 1500.24 339.975 1500.24 340.45V349.041C1500.24 349.515 1500.62 349.9 1501.1 349.9H1504.53C1505.01 349.9 1505.39 349.515 1505.39 349.041V340.45C1505.39 339.975 1505.01 339.591 1504.53 339.591Z" fill="#F5F5DC"/>
<path opacity="0.8" d="M1502.81 342.168C1504.71 342.168 1506.25 339.861 1506.25 337.014C1506.25 334.167 1504.71 331.859 1502.81 331.859C1500.92 331.859 1499.38 334.167 1499.38 337.014C1499.38 339.861 1500.92 342.168 1502.81 342.168Z" fill="#FF6600"/>
<path opacity="0.9" d="M1502.81 337.873C1504.24 337.873 1505.39 336.334 1505.39 334.436C1505.39 332.539 1504.24 331 1502.81 331C1501.39 331 1500.24 332.539 1500.24 334.436C1500.24 336.334 1501.39 337.873 1502.81 337.873Z" fill="#FFCC00"/>
<path d="M1608.48 347.322H1599.89C1599.42 347.322 1599.03 347.707 1599.03 348.181V361.927C1599.03 362.401 1599.42 362.786 1599.89 362.786H1608.48C1608.96 362.786 1609.34 362.401 1609.34 361.927V348.181C1609.34 347.707 1608.96 347.322 1608.48 347.322Z" fill="#DAA520"/>
<path d="M1605.9 339.591H1602.47C1601.99 339.591 1601.61 339.975 1601.61 340.45V349.041C1601.61 349.515 1601.99 349.9 1602.47 349.9H1605.9C1606.38 349.9 1606.76 349.515 1606.76 349.041V340.45C1606.76 339.975 1606.38 339.591 1605.9 339.591Z" fill="#F5F5DC"/>
<path opacity="0.8" d="M1604.19 342.168C1606.08 342.168 1607.62 339.861 1607.62 337.014C1607.62 334.167 1606.08 331.859 1604.19 331.859C1602.29 331.859 1600.75 334.167 1600.75 337.014C1600.75 339.861 1602.29 342.168 1604.19 342.168Z" fill="#FF6600"/>
<path opacity="0.9" d="M1604.19 337.873C1605.61 337.873 1606.76 336.334 1606.76 334.436C1606.76 332.539 1605.61 331 1604.19 331C1602.76 331 1601.61 332.539 1601.61 334.436C1601.61 336.334 1602.76 337.873 1604.19 337.873Z" fill="#FFCC00"/>
<path d="M1533.81 692.52C1550.17 689.637 1562.62 682.753 1561.63 677.146C1560.65 671.539 1546.59 669.332 1530.23 672.215C1513.88 675.099 1501.42 681.982 1502.41 687.589C1503.4 693.196 1517.46 695.404 1533.81 692.52Z" fill="#4A2F1A" stroke="#3D2817" stroke-width="1.5"/>
<path d="M1573.49 688.252C1587.5 690.723 1599.53 688.939 1600.36 684.267C1601.18 679.594 1590.49 673.803 1576.47 671.331C1562.45 668.859 1550.42 670.643 1549.6 675.316C1548.77 679.988 1559.47 685.78 1573.49 688.252Z" fill="#5C4033" stroke="#3D2817" stroke-width="1.5"/>
<path d="M1553.5 684.087C1566.79 684.087 1577.55 680.625 1577.55 676.355C1577.55 672.085 1566.79 668.623 1553.5 668.623C1540.22 668.623 1529.45 672.085 1529.45 676.355C1529.45 680.625 1540.22 684.087 1553.5 684.087Z" fill="#654321" stroke="#4A2F1A"/>
<path opacity="0.15" d="M1549.2 690.959C1575.3 690.959 1596.45 675.574 1596.45 656.595C1596.45 637.617 1575.3 622.231 1549.2 622.231C1523.11 622.231 1501.95 637.617 1501.95 656.595C1501.95 675.574 1523.11 690.959 1549.2 690.959Z" fill="#FF4500"/>
<path opacity="0.5" d="M1553.5 693.536C1562.99 693.536 1570.68 690.459 1570.68 686.664C1570.68 682.868 1562.99 679.791 1553.5 679.791C1544.01 679.791 1536.32 682.868 1536.32 686.664C1536.32 690.459 1544.01 693.536 1553.5 693.536Z" fill="#FFF8DC"/>
<path opacity="0.06" d="M1553.5 811.232C1605.69 811.232 1648 799.693 1648 785.459C1648 771.225 1605.69 759.687 1553.5 759.687C1501.31 759.687 1459 771.225 1459 785.459C1459 799.693 1501.31 811.232 1553.5 811.232Z" fill="#FF6600"/>
<path opacity="0.04" d="M1553.5 794.05C1586.71 794.05 1613.64 787.127 1613.64 778.587C1613.64 770.046 1586.71 763.123 1553.5 763.123C1520.29 763.123 1493.36 770.046 1493.36 778.587C1493.36 787.127 1520.29 794.05 1553.5 794.05Z" fill="#FFCC00"/>
<path d="M1641.99 768.277H1465.01C1464.06 768.277 1463.3 769.047 1463.3 769.996V778.586C1463.3 779.535 1464.06 780.305 1465.01 780.305H1641.99C1642.94 780.305 1643.7 779.535 1643.7 778.586V769.996C1643.7 769.047 1642.94 768.277 1641.99 768.277Z" fill="#7A6850" stroke="#5C4033" stroke-width="2"/>
<path d="M424.513 513.038L177.272 514.05C172.151 514.071 168.018 518.477 168.04 523.891L168.869 726.491C168.891 731.905 173.06 736.277 178.181 736.256L425.422 735.245C430.543 735.224 434.676 730.818 434.654 725.404L433.825 522.804C433.803 517.39 429.634 513.017 424.513 513.038Z" fill="url(#paint4_linear_450_2)" stroke="black" stroke-width="6"/>
<path d="M415.601 526.147L186.903 527.083C183.489 527.097 180.734 530.034 180.749 533.644L181.497 716.637C181.512 720.247 184.291 723.162 187.705 723.148L416.403 722.212C419.817 722.198 422.572 719.261 422.558 715.651L421.809 532.658C421.794 529.048 419.015 526.133 415.601 526.147Z" fill="#1A1A1A" stroke="#0D0D0D" stroke-width="3"/>
<path d="M407.614 537.944L194.986 538.814C193.28 538.821 191.902 540.289 191.909 542.094L192.588 708.095C192.596 709.9 193.985 711.357 195.692 711.35L408.32 710.48C410.027 710.473 411.405 709.005 411.397 707.2L410.718 541.199C410.711 539.394 409.321 537.937 407.614 537.944Z" fill="#4C4C4C" stroke="black" stroke-width="2"/>
<path d="M407.864 540.125L194 541L194.685 708.308L408.549 707.433L407.864 540.125Z" fill="#00070D"/>
<path d="M222.714 631.802L219.091 621.796L221.286 621.787L223.852 629.193L226.276 621.766L228.422 621.757L224.875 631.793L222.714 631.802ZM229.202 623.532L229.195 621.754L231.116 621.746L231.123 623.524L229.202 623.532ZM229.236 631.776L229.206 624.516L231.127 624.508L231.157 631.768L229.236 631.776ZM239.79 631.732L238.006 631.74L238.002 630.673C237.707 631.089 237.358 631.401 236.953 631.607C236.553 631.809 236.148 631.911 235.737 631.913C234.903 631.916 234.187 631.584 233.587 630.917C232.992 630.245 232.692 629.307 232.687 628.104C232.682 626.874 232.967 625.938 233.543 625.298C234.12 624.653 234.85 624.329 235.734 624.325C236.545 624.322 237.248 624.656 237.843 625.328L237.829 621.719L239.749 621.711L239.79 631.732ZM234.648 627.966C234.651 628.741 234.761 629.301 234.976 629.647C235.288 630.147 235.722 630.396 236.278 630.393C236.72 630.391 237.095 630.203 237.404 629.828C237.712 629.449 237.865 628.885 237.862 628.138C237.858 627.304 237.705 626.705 237.403 626.342C237.101 625.974 236.715 625.791 236.246 625.793C235.79 625.795 235.408 625.979 235.099 626.344C234.796 626.706 234.645 627.246 234.648 627.966ZM245.885 629.397L247.801 629.71C247.558 630.413 247.17 630.95 246.638 631.322C246.111 631.688 245.449 631.873 244.651 631.877C243.389 631.882 242.453 631.473 241.844 630.651C241.362 629.992 241.12 629.159 241.116 628.152C241.111 626.949 241.421 626.006 242.047 625.325C242.674 624.639 243.467 624.294 244.429 624.29C245.509 624.285 246.363 624.639 246.99 625.352C247.617 626.061 247.92 627.151 247.899 628.623L243.086 628.643C243.102 629.212 243.259 629.656 243.557 629.974C243.854 630.287 244.224 630.443 244.666 630.441C244.967 630.44 245.219 630.357 245.424 630.192C245.628 630.027 245.782 629.762 245.885 629.397ZM245.987 627.455C245.971 626.899 245.826 626.478 245.551 626.192C245.276 625.902 244.943 625.757 244.551 625.759C244.132 625.761 243.786 625.915 243.514 626.221C243.242 626.528 243.109 626.943 243.116 627.467L245.987 627.455ZM249.024 627.962C249.022 627.324 249.176 626.706 249.488 626.108C249.8 625.509 250.243 625.052 250.816 624.735C251.393 624.418 252.037 624.258 252.748 624.256C253.847 624.251 254.748 624.605 255.453 625.318C256.158 626.026 256.512 626.924 256.517 628.014C256.521 629.112 256.169 630.025 255.461 630.752C254.758 631.475 253.868 631.839 252.793 631.843C252.128 631.846 251.491 631.698 250.884 631.4C250.281 631.102 249.821 630.664 249.504 630.086C249.188 629.504 249.028 628.796 249.024 627.962ZM250.993 628.057C250.996 628.777 251.169 629.327 251.513 629.709C251.856 630.09 252.278 630.28 252.78 630.278C253.281 630.276 253.699 630.083 254.035 629.699C254.375 629.314 254.544 628.758 254.541 628.029C254.538 627.318 254.365 626.771 254.022 626.39C253.683 626.009 253.263 625.819 252.761 625.821C252.26 625.823 251.839 626.016 251.499 626.4C251.159 626.785 250.99 627.337 250.993 628.057ZM261.952 631.642L261.911 621.62L269.342 621.59L269.349 623.285L263.942 623.307L263.951 625.529L268.982 625.508L268.989 627.197L263.958 627.218L263.969 629.945L269.567 629.922L269.574 631.611L261.952 631.642ZM277.935 631.576L276.15 631.584L276.146 630.517C275.852 630.933 275.502 631.245 275.097 631.451C274.697 631.653 274.292 631.755 273.882 631.757C273.048 631.76 272.331 631.428 271.731 630.761C271.136 630.089 270.836 629.151 270.831 627.948C270.826 626.718 271.111 625.782 271.688 625.142C272.264 624.497 272.994 624.173 273.878 624.169C274.689 624.166 275.392 624.5 275.988 625.172L275.973 621.563L277.894 621.555L277.935 631.576ZM272.792 627.81C272.795 628.585 272.905 629.145 273.12 629.491C273.432 629.991 273.866 630.239 274.422 630.237C274.864 630.235 275.24 630.047 275.548 629.672C275.856 629.293 276.009 628.729 276.006 627.982C276.002 627.148 275.85 626.549 275.547 626.186C275.245 625.818 274.859 625.635 274.39 625.637C273.934 625.639 273.552 625.822 273.244 626.188C272.94 626.55 272.789 627.09 272.792 627.81ZM284.613 631.549L284.609 630.462C284.346 630.851 283.999 631.157 283.567 631.382C283.139 631.607 282.686 631.721 282.208 631.723C281.72 631.725 281.282 631.62 280.894 631.407C280.506 631.194 280.224 630.895 280.049 630.508C279.875 630.121 279.786 629.586 279.783 628.903L279.764 624.309L281.685 624.301L281.699 627.637C281.703 628.658 281.74 629.284 281.809 629.517C281.883 629.744 282.014 629.926 282.201 630.062C282.388 630.193 282.626 630.258 282.913 630.257C283.241 630.256 283.534 630.166 283.793 629.987C284.052 629.804 284.229 629.58 284.324 629.315C284.418 629.046 284.464 628.391 284.459 627.352L284.447 624.29L286.368 624.282L286.397 631.542L284.613 631.549ZM288.325 631.534L288.284 621.512L290.205 621.505L290.227 626.823L292.465 624.257L294.831 624.247L292.36 626.91L295.038 631.506L292.967 631.515L291.128 628.262L290.237 629.202L290.246 631.526L288.325 631.534ZM297.601 626.451L295.857 626.144C296.05 625.441 296.385 624.92 296.862 624.581C297.339 624.242 298.05 624.07 298.993 624.066C299.85 624.063 300.488 624.163 300.908 624.366C301.328 624.565 301.623 624.821 301.793 625.135C301.968 625.444 302.057 626.016 302.06 626.85L302.049 629.092C302.051 629.73 302.083 630.202 302.143 630.507C302.208 630.807 302.326 631.13 302.496 631.476L300.596 631.484C300.545 631.356 300.483 631.167 300.409 630.917C300.376 630.803 300.353 630.728 300.339 630.692C300.013 631.012 299.663 631.253 299.29 631.414C298.917 631.575 298.518 631.656 298.094 631.658C297.347 631.661 296.756 631.461 296.321 631.057C295.891 630.653 295.675 630.141 295.672 629.521C295.671 629.111 295.767 628.746 295.962 628.426C296.157 628.102 296.429 627.855 296.779 627.685C297.134 627.51 297.644 627.358 298.309 627.227C299.206 627.055 299.827 626.895 300.173 626.748L300.172 626.557C300.171 626.188 300.078 625.926 299.895 625.772C299.713 625.613 299.368 625.535 298.862 625.537C298.52 625.538 298.254 625.607 298.063 625.745C297.872 625.878 297.718 626.113 297.601 626.451ZM300.178 627.999C299.932 628.082 299.543 628.182 299.01 628.298C298.478 628.414 298.129 628.527 297.966 628.637C297.716 628.816 297.591 629.042 297.593 629.315C297.594 629.584 297.695 629.816 297.896 630.011C298.098 630.206 298.353 630.303 298.663 630.302C299.009 630.301 299.339 630.185 299.653 629.956C299.885 629.782 300.036 629.57 300.108 629.319C300.158 629.154 300.181 628.842 300.18 628.382L300.178 627.999ZM303.294 629.401L305.221 629.099C305.304 629.473 305.472 629.757 305.723 629.952C305.975 630.142 306.326 630.237 306.777 630.235C307.274 630.233 307.647 630.14 307.897 629.957C308.065 629.828 308.149 629.657 308.148 629.443C308.147 629.297 308.101 629.177 308.01 629.081C307.914 628.99 307.699 628.907 307.366 628.831C305.815 628.495 304.832 628.187 304.416 627.906C303.84 627.517 303.551 626.973 303.548 626.276C303.545 625.647 303.792 625.118 304.287 624.687C304.782 624.257 305.551 624.04 306.594 624.035C307.588 624.031 308.327 624.19 308.811 624.512C309.296 624.833 309.63 625.31 309.815 625.943L308.005 626.285C307.926 626.003 307.777 625.787 307.558 625.638C307.343 625.488 307.035 625.414 306.634 625.416C306.128 625.418 305.766 625.49 305.548 625.632C305.403 625.733 305.33 625.863 305.331 626.023C305.332 626.16 305.396 626.276 305.524 626.371C305.698 626.498 306.295 626.675 307.317 626.903C308.343 627.132 309.06 627.414 309.467 627.749C309.87 628.089 310.072 628.565 310.075 629.175C310.077 629.841 309.802 630.414 309.248 630.895C308.694 631.375 307.872 631.618 306.783 631.622C305.794 631.626 305.009 631.429 304.429 631.03C303.853 630.632 303.475 630.089 303.294 629.401ZM311.739 623.194L311.731 621.417L313.652 621.409L313.659 623.186L311.739 623.194ZM311.772 631.438L311.743 624.178L313.663 624.17L313.693 631.43L311.772 631.438ZM319.392 624.147L321.162 624.14L321.166 625.131C321.797 624.358 322.549 623.97 323.424 623.966C323.889 623.964 324.293 624.059 324.636 624.249C324.978 624.439 325.26 624.727 325.48 625.113C325.797 624.725 326.14 624.434 326.509 624.241C326.877 624.048 327.271 623.951 327.69 623.949C328.223 623.947 328.675 624.054 329.045 624.272C329.415 624.484 329.692 624.8 329.876 625.218C330.009 625.528 330.077 626.029 330.08 626.721L330.099 631.363L328.178 631.371L328.161 627.221C328.158 626.501 328.09 626.037 327.957 625.828C327.779 625.555 327.505 625.419 327.135 625.421C326.867 625.422 326.614 625.505 326.378 625.67C326.141 625.835 325.971 626.077 325.868 626.397C325.764 626.712 325.714 627.211 325.717 627.895L325.731 631.381L323.81 631.389L323.794 627.41C323.791 626.704 323.755 626.248 323.686 626.043C323.617 625.839 323.509 625.686 323.363 625.587C323.221 625.487 323.027 625.438 322.781 625.439C322.485 625.44 322.219 625.521 321.982 625.681C321.746 625.842 321.576 626.073 321.472 626.374C321.373 626.675 321.325 627.174 321.328 627.871L321.342 631.399L319.422 631.407L319.392 624.147ZM336.215 629.027L338.13 629.341C337.887 630.044 337.499 630.581 336.968 630.952C336.441 631.319 335.778 631.504 334.981 631.507C333.718 631.512 332.782 631.104 332.173 630.281C331.692 629.622 331.449 628.789 331.445 627.782C331.44 626.579 331.751 625.637 332.377 624.955C333.003 624.269 333.797 623.924 334.758 623.92C335.838 623.916 336.692 624.27 337.319 624.983C337.947 625.691 338.25 626.781 338.228 628.254L333.416 628.273C333.432 628.843 333.589 629.286 333.886 629.604C334.184 629.918 334.553 630.073 334.995 630.071C335.296 630.07 335.549 629.987 335.753 629.822C335.958 629.657 336.111 629.392 336.215 629.027ZM336.316 627.086C336.3 626.53 336.155 626.109 335.88 625.823C335.606 625.532 335.272 625.388 334.881 625.389C334.461 625.391 334.116 625.545 333.843 625.852C333.571 626.158 333.438 626.573 333.445 627.097L336.316 627.086ZM346.417 631.296L344.496 631.304L344.48 627.599C344.477 626.815 344.434 626.309 344.351 626.082C344.268 625.85 344.133 625.67 343.946 625.544C343.763 625.417 343.542 625.354 343.282 625.355C342.949 625.356 342.651 625.449 342.387 625.632C342.124 625.815 341.943 626.058 341.844 626.359C341.749 626.66 341.703 627.216 341.707 628.027L341.72 631.315L339.799 631.323L339.77 624.064L341.554 624.056L341.558 625.123C342.188 624.3 342.984 623.886 343.946 623.882C344.37 623.881 344.757 623.957 345.109 624.11C345.46 624.259 345.725 624.452 345.904 624.688C346.087 624.924 346.214 625.192 346.283 625.493C346.358 625.793 346.396 626.224 346.398 626.785L346.417 631.296ZM348.196 631.767L350.391 632.025C350.429 632.28 350.514 632.455 350.646 632.55C350.829 632.686 351.117 632.754 351.508 632.752C352.01 632.75 352.385 632.673 352.635 632.522C352.804 632.421 352.931 632.258 353.016 632.035C353.075 631.875 353.103 631.581 353.102 631.153L353.097 630.093C352.526 630.879 351.803 631.274 350.928 631.278C349.953 631.282 349.179 630.872 348.606 630.05C348.156 629.4 347.93 628.59 347.926 627.619C347.921 626.402 348.209 625.471 348.789 624.826C349.375 624.182 350.103 623.857 350.973 623.854C351.871 623.85 352.613 624.241 353.2 625.027L353.195 624.009L354.993 624.001L355.02 630.516C355.023 631.373 354.955 632.013 354.816 632.438C354.676 632.862 354.479 633.196 354.225 633.438C353.971 633.681 353.63 633.871 353.202 634.01C352.779 634.148 352.241 634.219 351.59 634.221C350.359 634.226 349.486 634.018 348.969 633.596C348.452 633.179 348.193 632.647 348.19 632C348.19 631.936 348.192 631.859 348.196 631.767ZM349.894 627.502C349.897 628.272 350.048 628.836 350.345 629.195C350.648 629.549 351.018 629.726 351.455 629.724C351.924 629.722 352.32 629.538 352.642 629.172C352.964 628.802 353.124 628.256 353.121 627.536C353.118 626.784 352.961 626.227 352.649 625.863C352.338 625.5 351.945 625.319 351.471 625.321C351.011 625.323 350.631 625.505 350.332 625.866C350.037 626.223 349.891 626.768 349.894 627.502ZM361.125 628.925L363.04 629.239C362.797 629.942 362.409 630.479 361.878 630.85C361.351 631.217 360.688 631.402 359.891 631.405C358.628 631.41 357.692 631.002 357.083 630.179C356.602 629.52 356.359 628.687 356.355 627.68C356.35 626.477 356.661 625.535 357.287 624.853C357.913 624.167 358.707 623.822 359.668 623.818C360.748 623.814 361.602 624.168 362.229 624.881C362.857 625.589 363.159 626.679 363.138 628.152L358.326 628.171C358.342 628.741 358.498 629.185 358.796 629.502C359.093 629.816 359.463 629.971 359.905 629.97C360.206 629.968 360.459 629.885 360.663 629.72C360.868 629.555 361.021 629.29 361.125 628.925ZM361.226 626.984C361.21 626.428 361.065 626.007 360.79 625.721C360.516 625.43 360.182 625.286 359.79 625.287C359.371 625.289 359.025 625.443 358.753 625.75C358.481 626.056 358.348 626.471 358.355 626.995L361.226 626.984ZM371.326 631.194L369.406 631.202L369.39 627.497C369.387 626.713 369.344 626.208 369.261 625.98C369.178 625.748 369.043 625.568 368.856 625.442C368.673 625.315 368.452 625.252 368.192 625.253C367.859 625.254 367.561 625.347 367.297 625.53C367.034 625.713 366.853 625.956 366.753 626.257C366.659 626.558 366.613 627.114 366.617 627.925L366.63 631.214L364.709 631.221L364.68 623.962L366.464 623.954L366.468 625.021C367.098 624.198 367.894 623.784 368.856 623.781C369.279 623.779 369.667 623.855 370.019 624.008C370.37 624.157 370.635 624.35 370.814 624.586C370.997 624.822 371.124 625.091 371.193 625.391C371.267 625.692 371.306 626.122 371.308 626.683L371.326 631.194ZM374.696 626.136L372.952 625.828C373.145 625.126 373.48 624.605 373.957 624.266C374.434 623.926 375.145 623.755 376.088 623.751C376.945 623.747 377.583 623.847 378.003 624.051C378.423 624.25 378.718 624.506 378.888 624.82C379.063 625.129 379.152 625.7 379.155 626.534L379.144 628.777C379.146 629.415 379.178 629.886 379.238 630.191C379.303 630.492 379.421 630.815 379.591 631.16L377.691 631.168C377.64 631.041 377.578 630.852 377.504 630.602C377.471 630.488 377.448 630.413 377.434 630.376C377.108 630.697 376.758 630.937 376.385 631.098C376.012 631.259 375.613 631.341 375.189 631.343C374.442 631.346 373.851 631.145 373.416 630.741C372.986 630.338 372.77 629.826 372.768 629.206C372.766 628.796 372.862 628.431 373.057 628.111C373.252 627.787 373.524 627.539 373.874 627.369C374.229 627.195 374.739 627.042 375.404 626.912C376.301 626.74 376.922 626.58 377.268 626.433L377.267 626.241C377.266 625.872 377.173 625.61 376.991 625.456C376.808 625.297 376.463 625.219 375.957 625.221C375.616 625.223 375.349 625.292 375.158 625.43C374.968 625.562 374.814 625.798 374.696 626.136ZM377.273 627.684C377.027 627.767 376.638 627.866 376.105 627.982C375.573 628.098 375.224 628.212 375.061 628.322C374.811 628.5 374.686 628.726 374.688 629C374.689 629.269 374.79 629.501 374.991 629.696C375.193 629.891 375.448 629.988 375.758 629.987C376.104 629.985 376.434 629.87 376.748 629.641C376.98 629.467 377.131 629.254 377.203 629.003C377.253 628.839 377.277 628.527 377.275 628.066L377.273 627.684ZM381.041 622.91L381.033 621.133L382.954 621.125L382.962 622.902L381.041 622.91ZM381.074 631.154L381.045 623.895L382.966 623.887L382.995 631.147L381.074 631.154ZM273.058 647.596L273.017 637.575L276.264 637.562C277.494 637.557 278.297 637.604 278.671 637.702C279.245 637.85 279.728 638.177 280.117 638.681C280.506 639.181 280.703 639.829 280.706 640.627C280.709 641.242 280.599 641.76 280.377 642.18C280.156 642.6 279.872 642.932 279.527 643.174C279.186 643.413 278.838 643.571 278.483 643.65C278 643.748 277.301 643.799 276.385 643.803L275.066 643.808L275.081 647.588L273.058 647.596ZM275.047 639.262L275.059 642.106L276.166 642.101C276.964 642.098 277.497 642.043 277.765 641.938C278.034 641.832 278.243 641.667 278.392 641.443C278.546 641.219 278.622 640.959 278.621 640.663C278.62 640.298 278.511 639.998 278.296 639.761C278.081 639.525 277.809 639.378 277.481 639.32C277.239 639.276 276.754 639.255 276.025 639.258L275.047 639.262ZM284.255 637.529L284.27 641.214C284.887 640.486 285.626 640.121 286.487 640.118C286.929 640.116 287.328 640.196 287.685 640.359C288.041 640.521 288.308 640.73 288.487 640.984C288.67 641.239 288.794 641.521 288.86 641.831C288.929 642.14 288.965 642.621 288.968 643.273L288.985 647.531L287.064 647.539L287.049 643.704C287.046 642.943 287.007 642.46 286.933 642.255C286.86 642.051 286.729 641.889 286.542 641.772C286.359 641.649 286.129 641.589 285.851 641.59C285.532 641.591 285.247 641.67 284.997 641.826C284.747 641.982 284.564 642.217 284.446 642.532C284.334 642.843 284.279 643.303 284.281 643.914L284.296 647.55L282.375 647.558L282.334 637.537L284.255 637.529ZM290.907 639.279L290.899 637.502L292.82 637.494L292.828 639.271L290.907 639.279ZM290.94 647.523L290.911 640.264L292.832 640.256L292.861 647.515L290.94 647.523ZM294.152 645.439L296.078 645.137C296.162 645.51 296.329 645.795 296.581 645.989C296.832 646.18 297.183 646.274 297.635 646.272C298.131 646.27 298.505 646.178 298.755 645.994C298.923 645.866 299.006 645.695 299.005 645.481C299.005 645.335 298.959 645.214 298.867 645.119C298.771 645.028 298.557 644.945 298.224 644.868C296.673 644.533 295.689 644.225 295.273 643.944C294.698 643.554 294.408 643.011 294.405 642.314C294.403 641.685 294.649 641.155 295.144 640.725C295.639 640.294 296.408 640.077 297.452 640.073C298.445 640.069 299.184 640.227 299.669 640.549C300.153 640.871 300.488 641.348 300.673 641.981L298.863 642.323C298.784 642.041 298.635 641.825 298.416 641.675C298.201 641.526 297.893 641.452 297.492 641.453C296.986 641.456 296.624 641.528 296.406 641.67C296.26 641.771 296.188 641.901 296.189 642.06C296.189 642.197 296.253 642.313 296.381 642.408C296.555 642.535 297.153 642.713 298.175 642.941C299.201 643.169 299.918 643.451 300.325 643.787C300.727 644.127 300.93 644.602 300.932 645.213C300.935 645.878 300.659 646.451 300.105 646.932C299.551 647.413 298.729 647.656 297.64 647.66C296.651 647.664 295.867 647.467 295.286 647.068C294.71 646.669 294.332 646.126 294.152 645.439ZM304.503 637.446L304.518 641.131C305.135 640.404 305.874 640.038 306.735 640.035C307.177 640.033 307.576 640.113 307.932 640.276C308.289 640.439 308.556 640.647 308.735 640.902C308.918 641.156 309.042 641.438 309.107 641.748C309.177 642.057 309.213 642.538 309.216 643.19L309.233 647.448L307.312 647.456L307.297 643.621C307.294 642.86 307.255 642.377 307.181 642.173C307.108 641.968 306.977 641.807 306.79 641.689C306.607 641.567 306.377 641.506 306.099 641.507C305.78 641.508 305.495 641.587 305.245 641.743C304.995 641.899 304.811 642.134 304.694 642.449C304.582 642.76 304.526 643.22 304.529 643.831L304.544 647.468L302.623 647.476L302.582 637.454L304.503 637.446ZM311.155 639.196L311.147 637.419L313.068 637.411L313.075 639.189L311.155 639.196ZM311.188 647.44L311.159 640.181L313.079 640.173L313.109 647.433L311.188 647.44ZM321.688 647.398L319.767 647.405L319.752 643.7C319.749 642.916 319.706 642.411 319.623 642.183C319.54 641.951 319.405 641.772 319.217 641.645C319.035 641.518 318.813 641.455 318.554 641.456C318.221 641.458 317.923 641.55 317.659 641.733C317.396 641.917 317.214 642.159 317.115 642.46C317.021 642.761 316.975 643.317 316.979 644.129L316.992 647.417L315.071 647.425L315.041 640.165L316.826 640.158L316.83 641.224C317.46 640.401 318.256 639.988 319.217 639.984C319.641 639.982 320.029 640.058 320.38 640.211C320.732 640.36 320.997 640.553 321.176 640.789C321.359 641.025 321.486 641.294 321.555 641.594C321.629 641.895 321.667 642.325 321.67 642.886L321.688 647.398ZM323.468 647.869L325.663 648.126C325.7 648.381 325.785 648.557 325.918 648.652C326.101 648.788 326.388 648.855 326.78 648.853C327.281 648.851 327.657 648.774 327.907 648.623C328.075 648.522 328.202 648.36 328.288 648.136C328.347 647.976 328.375 647.682 328.373 647.254L328.369 646.194C327.798 646.981 327.075 647.375 326.2 647.379C325.225 647.383 324.451 646.974 323.877 646.151C323.428 645.501 323.202 644.691 323.198 643.72C323.193 642.504 323.48 641.573 324.061 640.928C324.646 640.283 325.374 639.959 326.245 639.955C327.143 639.951 327.885 640.342 328.471 641.128L328.467 640.11L330.265 640.103L330.292 646.617C330.295 647.474 330.227 648.115 330.087 648.539C329.948 648.963 329.751 649.297 329.497 649.539C329.243 649.782 328.902 649.973 328.474 650.111C328.051 650.249 327.513 650.32 326.861 650.323C325.631 650.328 324.757 650.119 324.241 649.698C323.724 649.28 323.464 648.748 323.462 648.101C323.461 648.037 323.463 647.96 323.468 647.869ZM325.166 643.603C325.169 644.373 325.319 644.938 325.617 645.296C325.919 645.651 326.289 645.827 326.727 645.825C327.196 645.823 327.592 645.639 327.914 645.273C328.236 644.903 328.396 644.358 328.393 643.638C328.39 642.886 328.232 642.328 327.921 641.965C327.61 641.601 327.217 641.421 326.743 641.423C326.283 641.425 325.903 641.606 325.604 641.967C325.309 642.324 325.163 642.869 325.166 643.603Z" fill="white"/>
<path d="M274.582 611.784L274.548 603.458L271.575 603.47L271.568 601.774L279.531 601.742L279.538 603.437L276.572 603.449L276.606 611.775L274.582 611.784ZM280.208 606.811C280.204 605.791 280.353 604.933 280.656 604.239C280.882 603.728 281.19 603.269 281.58 602.861C281.975 602.454 282.406 602.152 282.875 601.954C283.498 601.687 284.218 601.552 285.034 601.548C286.51 601.542 287.692 601.996 288.58 602.908C289.473 603.82 289.922 605.092 289.929 606.724C289.935 608.342 289.501 609.61 288.625 610.53C287.749 611.445 286.575 611.905 285.103 611.911C283.613 611.918 282.426 611.469 281.543 610.566C280.66 609.658 280.215 608.406 280.208 606.811ZM282.293 606.734C282.298 607.869 282.563 608.729 283.09 609.315C283.616 609.896 284.283 610.185 285.089 610.182C285.896 610.179 286.556 609.887 287.068 609.306C287.585 608.72 287.842 607.847 287.837 606.684C287.832 605.536 287.576 604.68 287.068 604.117C286.564 603.554 285.895 603.274 285.061 603.278C284.227 603.281 283.556 603.571 283.048 604.147C282.54 604.719 282.288 605.581 282.293 606.734ZM291.556 611.714L291.515 601.693L293.483 601.685L297.612 608.36L297.585 601.668L299.465 601.66L299.506 611.682L297.476 611.69L293.409 605.171L293.436 611.707L291.556 611.714ZM303.908 611.664L303.874 603.338L300.9 603.35L300.894 601.654L308.857 601.622L308.864 603.317L305.897 603.329L305.932 611.655L303.908 611.664ZM309.534 606.691C309.53 605.671 309.679 604.813 309.982 604.119C310.208 603.608 310.516 603.149 310.906 602.741C311.301 602.334 311.732 602.032 312.201 601.834C312.824 601.567 313.544 601.432 314.36 601.428C315.836 601.422 317.018 601.876 317.906 602.788C318.799 603.7 319.248 604.972 319.255 606.604C319.261 608.222 318.827 609.49 317.951 610.41C317.075 611.325 315.901 611.785 314.429 611.792C312.939 611.798 311.752 611.349 310.869 610.446C309.986 609.538 309.541 608.286 309.534 606.691ZM311.619 606.614C311.624 607.749 311.889 608.609 312.416 609.195C312.942 609.776 313.609 610.065 314.415 610.062C315.222 610.059 315.882 609.767 316.394 609.186C316.911 608.6 317.168 607.727 317.163 606.564C317.158 605.416 316.902 604.56 316.393 603.997C315.89 603.434 315.221 603.154 314.387 603.158C313.553 603.161 312.882 603.451 312.374 604.027C311.866 604.599 311.614 605.462 311.619 606.614ZM320.882 611.594L320.841 601.573L322.809 601.565L326.938 608.24L326.911 601.548L328.791 601.54L328.832 611.562L326.801 611.57L322.735 605.051L322.761 611.587L320.882 611.594Z" fill="#226D18"/>
<path d="M291.928 668.16L290.398 668.166L290.395 667.252C290.142 667.609 289.843 667.876 289.496 668.053C289.153 668.226 288.805 668.314 288.454 668.315C287.739 668.318 287.124 668.033 286.61 667.461C286.1 666.885 285.843 666.082 285.839 665.05C285.834 663.996 286.079 663.194 286.573 662.645C287.067 662.092 287.693 661.814 288.451 661.811C289.146 661.808 289.749 662.095 290.259 662.671L290.246 659.577L291.893 659.57L291.928 668.16ZM287.52 664.932C287.523 665.596 287.616 666.076 287.801 666.372C288.069 666.801 288.441 667.014 288.917 667.012C289.296 667.011 289.618 666.849 289.882 666.528C290.146 666.203 290.277 665.72 290.275 665.079C290.272 664.364 290.141 663.851 289.881 663.54C289.622 663.224 289.292 663.067 288.889 663.069C288.499 663.071 288.171 663.228 287.907 663.542C287.646 663.852 287.517 664.315 287.52 664.932ZM293.528 661.087L293.522 659.564L295.168 659.557L295.174 661.08L293.528 661.087ZM293.557 668.154L293.531 661.931L295.178 661.924L295.203 668.147L293.557 668.154ZM296.309 666.367L297.96 666.108C298.032 666.428 298.176 666.672 298.391 666.839C298.607 667.002 298.908 667.083 299.294 667.081C299.72 667.08 300.04 667 300.254 666.843C300.399 666.733 300.47 666.586 300.469 666.403C300.469 666.278 300.429 666.174 300.351 666.093C300.269 666.015 300.085 665.943 299.799 665.878C298.47 665.59 297.627 665.326 297.271 665.086C296.777 664.752 296.529 664.286 296.527 663.688C296.524 663.149 296.736 662.695 297.16 662.326C297.584 661.957 298.243 661.771 299.138 661.767C299.99 661.764 300.623 661.9 301.038 662.176C301.453 662.451 301.74 662.86 301.899 663.403L300.347 663.696C300.28 663.454 300.152 663.269 299.964 663.141C299.78 663.013 299.516 662.949 299.172 662.951C298.739 662.953 298.428 663.014 298.241 663.136C298.117 663.223 298.055 663.334 298.055 663.471C298.056 663.588 298.111 663.688 298.22 663.769C298.369 663.878 298.882 664.03 299.757 664.226C300.637 664.421 301.251 664.663 301.6 664.951C301.945 665.242 302.119 665.65 302.121 666.173C302.123 666.744 301.887 667.235 301.412 667.647C300.937 668.059 300.233 668.267 299.299 668.271C298.452 668.274 297.779 668.105 297.282 667.763C296.788 667.422 296.464 666.956 296.309 666.367ZM303.547 661.046L303.541 659.523L305.187 659.516L305.194 661.039L303.547 661.046ZM303.576 668.113L303.551 661.89L305.197 661.883L305.223 668.106L303.576 668.113ZM312.576 668.076L310.93 668.082L310.917 664.907C310.914 664.235 310.877 663.801 310.806 663.606C310.735 663.407 310.619 663.254 310.458 663.145C310.301 663.036 310.112 662.982 309.889 662.983C309.604 662.984 309.348 663.064 309.123 663.221C308.897 663.378 308.741 663.586 308.656 663.844C308.575 664.102 308.536 664.579 308.539 665.274L308.551 668.092L306.904 668.099L306.879 661.876L308.408 661.87L308.412 662.784C308.952 662.079 309.634 661.724 310.458 661.721C310.821 661.72 311.154 661.785 311.455 661.916C311.756 662.044 311.984 662.209 312.137 662.411C312.294 662.614 312.402 662.844 312.462 663.102C312.525 663.359 312.558 663.728 312.56 664.209L312.576 668.076ZM314.223 661.003L314.217 659.479L315.863 659.472L315.869 660.996L314.223 661.003ZM314.252 668.069L314.226 661.846L315.873 661.84L315.898 668.062L314.252 668.069Z" fill="#226D18"/>
<path d="M276.126 728.415L276.086 718.476L278.109 718.468L278.143 726.719L283.174 726.698L283.181 728.387L276.126 728.415ZM289.277 724.677L289.27 722.989L293.632 722.971L293.648 726.963C293.226 727.375 292.612 727.74 291.807 728.057C291.006 728.37 290.193 728.529 289.368 728.532C288.32 728.536 287.405 728.321 286.624 727.887C285.843 727.448 285.255 726.822 284.86 726.008C284.465 725.189 284.265 724.299 284.261 723.337C284.257 722.294 284.472 721.365 284.906 720.552C285.34 719.739 285.978 719.115 286.819 718.678C287.46 718.343 288.259 718.173 289.216 718.169C290.461 718.164 291.432 718.422 292.132 718.944C292.836 719.46 293.29 720.178 293.494 721.098L291.486 721.482C291.343 720.991 291.074 720.605 290.681 720.324C290.293 720.038 289.807 719.896 289.224 719.899C288.339 719.902 287.636 720.186 287.115 720.748C286.597 721.311 286.341 722.144 286.346 723.247C286.35 724.436 286.618 725.328 287.15 725.923C287.681 726.513 288.374 726.807 289.231 726.803C289.655 726.801 290.079 726.718 290.502 726.552C290.929 726.382 291.295 726.177 291.6 725.939L291.595 724.668L289.277 724.677ZM307.941 728.285L305.739 728.294L304.855 726.022L300.849 726.038L300.031 728.318L297.885 728.326L301.747 718.289L303.887 718.28L307.941 728.285ZM304.199 724.336L302.803 720.623L301.464 724.347L304.199 724.336ZM309.021 728.281L308.98 718.259L312.227 718.246C313.457 718.241 314.259 718.288 314.634 718.387C315.208 718.535 315.691 718.861 316.08 719.365C316.469 719.865 316.666 720.514 316.669 721.311C316.671 721.926 316.562 722.444 316.34 722.864C316.119 723.284 315.835 723.616 315.49 723.859C315.149 724.097 314.801 724.256 314.446 724.335C313.963 724.432 313.264 724.483 312.348 724.487L311.029 724.492L311.044 728.273L309.021 728.281ZM311.01 719.946L311.022 722.79L312.129 722.786C312.927 722.782 313.46 722.728 313.728 722.622C313.996 722.516 314.205 722.351 314.355 722.127C314.509 721.903 314.585 721.643 314.584 721.347C314.583 720.982 314.474 720.682 314.259 720.446C314.044 720.21 313.772 720.063 313.444 720.005C313.202 719.96 312.717 719.939 311.988 719.942L311.01 719.946ZM326.356 728.21L324.155 728.219L323.271 725.946L319.265 725.963L318.447 728.242L316.301 728.251L320.163 718.214L322.303 718.205L326.356 728.21ZM322.615 724.26L321.219 720.547L319.88 724.272L322.615 724.26Z" fill="#666666"/>
</g>
<defs>
<radialGradient id="paint0_radial_450_2" cx="0" cy="0" r="1" gradientUnits="userSpaceOnUse" gradientTransform="translate(960) scale(1344 756)">
<stop stop-color="#FFE8A0" stop-opacity="0.28"/>
<stop offset="1" stop-color="#FFE8A0" stop-opacity="0"/>
</radialGradient>
<radialGradient id="paint1_radial_450_2" cx="0" cy="0" r="1" gradientUnits="userSpaceOnUse" gradientTransform="translate(960 780) scale(768 240)">
<stop stop-color="#FFE898" stop-opacity="0.2"/>
<stop offset="1" stop-color="#FFE898" stop-opacity="0"/>
</radialGradient>
<linearGradient id="paint2_linear_450_2" x1="986" y1="408.394" x2="1150" y2="408.394" gradientUnits="userSpaceOnUse">
<stop stop-color="#B9B9B9"/>
<stop offset="0.4" stop-color="#AFA8A4"/>
<stop offset="1" stop-color="#898480"/>
</linearGradient>
<linearGradient id="paint3_linear_450_2" x1="770" y1="408.394" x2="934" y2="408.394" gradientUnits="userSpaceOnUse">
<stop stop-color="#B9B9B9"/>
<stop offset="0.4" stop-color="#AFA8A4"/>
<stop offset="1" stop-color="#898480"/>
</linearGradient>
<linearGradient id="paint4_linear_450_2" x1="168" y1="514.088" x2="168.909" y2="736.294" gradientUnits="userSpaceOnUse">
<stop stop-color="#3A3A3A"/>
<stop offset="1" stop-color="#1A1A1A"/>
</linearGradient>
<clipPath id="clip0_450_2">
<rect width="1920" height="1080" fill="white"/>
</clipPath>
</defs>
</svg>
